<svg width="175" height="149" viewBox="0 0 175 149" fill="none" xmlns="http://www.w3.org/2000/svg">
<g filter="url(#filter0_d_810_579)">
<path d="M156.5 7L151 14H10C8.34315 14 7 15.3431 7 17V139C7 140.657 8.34315 142 10 142H164.5C166.157 142 167.5 140.657 167.5 139V17C167.5 15.3431 166.157 14 164.5 14H156.5V7Z" fill="#E8E8E8"/>
</g>
<path d="M38.842 32.3V40H37.764V37.756H35.641C35.509 37.756 35.41 37.7523 35.344 37.745L33.804 40H32.638L34.343 37.558C33.793 37.3747 33.3713 37.0703 33.078 36.645C32.7847 36.2123 32.638 35.688 32.638 35.072C32.638 34.1993 32.9167 33.521 33.474 33.037C34.0387 32.5457 34.7977 32.3 35.751 32.3H38.842ZM33.749 35.061C33.749 35.633 33.914 36.073 34.244 36.381C34.5813 36.6817 35.0763 36.832 35.729 36.832H37.764V33.257H35.795C35.135 33.257 34.629 33.411 34.277 33.719C33.925 34.027 33.749 34.4743 33.749 35.061ZM44.2259 36.964C44.6146 37.0667 44.9152 37.2317 45.1279 37.459C45.3406 37.6863 45.4469 37.9687 45.4469 38.306C45.4469 38.6507 45.3296 38.9587 45.0949 39.23C44.8602 39.494 44.5339 39.703 44.1159 39.857C43.7052 40.0037 43.2432 40.077 42.7299 40.077C42.2972 40.077 41.8719 40.022 41.4539 39.912C41.0432 39.7947 40.6766 39.6297 40.3539 39.417L40.6729 38.614C40.9516 38.79 41.2706 38.9293 41.6299 39.032C41.9892 39.1273 42.3522 39.175 42.7189 39.175C43.2176 39.175 43.6136 39.0907 43.9069 38.922C44.2076 38.746 44.3579 38.5113 44.3579 38.218C44.3579 37.9467 44.2369 37.7377 43.9949 37.591C43.7602 37.4443 43.4266 37.371 42.9939 37.371H41.9269V36.612H42.9169C43.3129 36.612 43.6246 36.5423 43.8519 36.403C44.0792 36.2637 44.1929 36.073 44.1929 35.831C44.1929 35.567 44.0572 35.3617 43.7859 35.215C43.5219 35.0683 43.1626 34.995 42.7079 34.995C42.1286 34.995 41.5162 35.1453 40.8709 35.446L40.5849 34.632C41.2962 34.2727 42.0406 34.093 42.8179 34.093C43.2872 34.093 43.7089 34.159 44.0829 34.291C44.4569 34.423 44.7502 34.61 44.9629 34.852C45.1756 35.094 45.2819 35.369 45.2819 35.677C45.2819 35.963 45.1866 36.2197 44.9959 36.447C44.8052 36.6743 44.5486 36.8467 44.2259 36.964ZM49.6813 36.15C50.4146 36.1573 50.9756 36.326 51.3643 36.656C51.753 36.986 51.9473 37.4517 51.9473 38.053C51.9473 38.6837 51.7346 39.1713 51.3093 39.516C50.8913 39.8533 50.29 40.0183 49.5053 40.011L47.0523 40V34.17H48.1083V36.139L49.6813 36.15ZM52.8163 34.17H53.8723V40H52.8163V34.17ZM49.4283 39.208C49.905 39.2153 50.2643 39.12 50.5063 38.922C50.7556 38.724 50.8803 38.4307 50.8803 38.042C50.8803 37.6607 50.7593 37.382 50.5173 37.206C50.2753 37.03 49.9123 36.9383 49.4283 36.931L48.1083 36.909V39.197L49.4283 39.208ZM58.1913 37.536H56.9813V40H55.9253V34.17H56.9813V36.634H58.2133L60.1053 34.17H61.2383L59.0273 36.975L61.3923 40H60.1493L58.1913 37.536ZM64.906 30.738H65.863L62.233 41.1H61.276L64.906 30.738ZM66.6062 32.3H67.7062V39.043H71.8752V40H66.6062V32.3ZM75.1386 34.115C75.9453 34.115 76.5613 34.313 76.9866 34.709C77.4193 35.105 77.6356 35.6953 77.6356 36.48V40H76.6346V39.23C76.4586 39.5013 76.2056 39.7103 75.8756 39.857C75.553 39.9963 75.168 40.066 74.7206 40.066C74.068 40.066 73.5436 39.9083 73.1476 39.593C72.759 39.2777 72.5646 38.8633 72.5646 38.35C72.5646 37.8367 72.7516 37.426 73.1256 37.118C73.4996 36.8027 74.0936 36.645 74.9076 36.645H76.5796V36.436C76.5796 35.9813 76.4476 35.633 76.1836 35.391C75.9196 35.149 75.531 35.028 75.0176 35.028C74.673 35.028 74.3356 35.0867 74.0056 35.204C73.6756 35.314 73.397 35.4643 73.1696 35.655L72.7296 34.863C73.0303 34.621 73.3896 34.4377 73.8076 34.313C74.2256 34.181 74.6693 34.115 75.1386 34.115ZM74.8966 39.252C75.3 39.252 75.6483 39.164 75.9416 38.988C76.235 38.8047 76.4476 38.548 76.5796 38.218V37.404H74.9516C74.057 37.404 73.6096 37.7047 73.6096 38.306C73.6096 38.5993 73.7233 38.8303 73.9506 38.999C74.178 39.1677 74.4933 39.252 74.8966 39.252ZM82.7029 34.115C83.4435 34.115 84.0302 34.3313 84.4629 34.764C84.9029 35.1893 85.1229 35.8163 85.1229 36.645V40H84.0669V36.766C84.0669 36.2013 83.9312 35.776 83.6599 35.49C83.3885 35.204 82.9999 35.061 82.4939 35.061C81.9219 35.061 81.4709 35.2297 81.1409 35.567C80.8109 35.897 80.6459 36.3737 80.6459 36.997V40H79.5899V34.17H80.6019V35.05C80.8145 34.7493 81.1005 34.5183 81.4599 34.357C81.8265 34.1957 82.2409 34.115 82.7029 34.115ZM92.6864 34.17V39.208C92.6864 40.2273 92.4334 40.979 91.9274 41.463C91.4214 41.9543 90.6661 42.2 89.6614 42.2C89.1114 42.2 88.5871 42.123 88.0884 41.969C87.5897 41.8223 87.1864 41.6097 86.8784 41.331L87.3844 40.517C87.6557 40.7517 87.9894 40.935 88.3854 41.067C88.7887 41.2063 89.2031 41.276 89.6284 41.276C90.3104 41.276 90.8127 41.1147 91.1354 40.792C91.4654 40.4693 91.6304 39.978 91.6304 39.318V38.856C91.3811 39.1567 91.0731 39.384 90.7064 39.538C90.3471 39.6847 89.9547 39.758 89.5294 39.758C88.9721 39.758 88.4661 39.6407 88.0114 39.406C87.5641 39.164 87.2121 38.8303 86.9554 38.405C86.6987 37.9723 86.5704 37.481 86.5704 36.931C86.5704 36.381 86.6987 35.8933 86.9554 35.468C87.2121 35.0353 87.5641 34.7017 88.0114 34.467C88.4661 34.2323 88.9721 34.115 89.5294 34.115C89.9694 34.115 90.3764 34.1957 90.7504 34.357C91.1317 34.5183 91.4434 34.7567 91.6854 35.072V34.17H92.6864ZM89.6504 38.834C90.0317 38.834 90.3727 38.7533 90.6734 38.592C90.9814 38.4307 91.2197 38.207 91.3884 37.921C91.5644 37.6277 91.6524 37.2977 91.6524 36.931C91.6524 36.3663 91.4654 35.9117 91.0914 35.567C90.7174 35.215 90.2371 35.039 89.6504 35.039C89.0564 35.039 88.5724 35.215 88.1984 35.567C87.8244 35.9117 87.6374 36.3663 87.6374 36.931C87.6374 37.2977 87.7217 37.6277 87.8904 37.921C88.0664 38.207 88.3047 38.4307 88.6054 38.592C88.9134 38.7533 89.2617 38.834 89.6504 38.834ZM100.138 34.17V40H99.1371V39.12C98.9245 39.4207 98.6421 39.6553 98.2901 39.824C97.9455 39.9853 97.5678 40.066 97.1571 40.066C96.3798 40.066 95.7675 39.8533 95.3201 39.428C94.8728 38.9953 94.6491 38.361 94.6491 37.525V34.17H95.7051V37.404C95.7051 37.9687 95.8408 38.3977 96.1121 38.691C96.3835 38.977 96.7721 39.12 97.2781 39.12C97.8355 39.12 98.2755 38.9513 98.5981 38.614C98.9208 38.2767 99.0821 37.8 99.0821 37.184V34.17H100.138ZM104.271 34.115C105.078 34.115 105.694 34.313 106.119 34.709C106.552 35.105 106.768 35.6953 106.768 36.48V40H105.767V39.23C105.591 39.5013 105.338 39.7103 105.008 39.857C104.686 39.9963 104.301 40.066 103.853 40.066C103.201 40.066 102.676 39.9083 102.28 39.593C101.892 39.2777 101.697 38.8633 101.697 38.35C101.697 37.8367 101.884 37.426 102.258 37.118C102.632 36.8027 103.226 36.645 104.04 36.645H105.712V36.436C105.712 35.9813 105.58 35.633 105.316 35.391C105.052 35.149 104.664 35.028 104.15 35.028C103.806 35.028 103.468 35.0867 103.138 35.204C102.808 35.314 102.53 35.4643 102.302 35.655L101.862 34.863C102.163 34.621 102.522 34.4377 102.94 34.313C103.358 34.181 103.802 34.115 104.271 34.115ZM104.029 39.252C104.433 39.252 104.781 39.164 105.074 38.988C105.368 38.8047 105.58 38.548 105.712 38.218V37.404H104.084C103.19 37.404 102.742 37.7047 102.742 38.306C102.742 38.5993 102.856 38.8303 103.083 38.999C103.311 39.1677 103.626 39.252 104.029 39.252ZM114.332 34.17V39.208C114.332 40.2273 114.079 40.979 113.573 41.463C113.067 41.9543 112.312 42.2 111.307 42.2C110.757 42.2 110.233 42.123 109.734 41.969C109.235 41.8223 108.832 41.6097 108.524 41.331L109.03 40.517C109.301 40.7517 109.635 40.935 110.031 41.067C110.434 41.2063 110.849 41.276 111.274 41.276C111.956 41.276 112.458 41.1147 112.781 40.792C113.111 40.4693 113.276 39.978 113.276 39.318V38.856C113.027 39.1567 112.719 39.384 112.352 39.538C111.993 39.6847 111.6 39.758 111.175 39.758C110.618 39.758 110.112 39.6407 109.657 39.406C109.21 39.164 108.858 38.8303 108.601 38.405C108.344 37.9723 108.216 37.481 108.216 36.931C108.216 36.381 108.344 35.8933 108.601 35.468C108.858 35.0353 109.21 34.7017 109.657 34.467C110.112 34.2323 110.618 34.115 111.175 34.115C111.615 34.115 112.022 34.1957 112.396 34.357C112.777 34.5183 113.089 34.7567 113.331 35.072V34.17H114.332ZM111.296 38.834C111.677 38.834 112.018 38.7533 112.319 38.592C112.627 38.4307 112.865 38.207 113.034 37.921C113.21 37.6277 113.298 37.2977 113.298 36.931C113.298 36.3663 113.111 35.9117 112.737 35.567C112.363 35.215 111.883 35.039 111.296 35.039C110.702 35.039 110.218 35.215 109.844 35.567C109.47 35.9117 109.283 36.3663 109.283 36.931C109.283 37.2977 109.367 37.6277 109.536 37.921C109.712 38.207 109.95 38.4307 110.251 38.592C110.559 38.7533 110.907 38.834 111.296 38.834ZM121.619 37.118C121.619 37.1987 121.611 37.305 121.597 37.437H116.867C116.933 37.9503 117.156 38.3647 117.538 38.68C117.926 38.988 118.407 39.142 118.979 39.142C119.675 39.142 120.236 38.9073 120.662 38.438L121.245 39.12C120.981 39.428 120.651 39.6627 120.255 39.824C119.866 39.9853 119.43 40.066 118.946 40.066C118.33 40.066 117.783 39.9413 117.307 39.692C116.83 39.4353 116.46 39.0797 116.196 38.625C115.939 38.1703 115.811 37.657 115.811 37.085C115.811 36.5203 115.935 36.0107 116.185 35.556C116.441 35.1013 116.79 34.7493 117.23 34.5C117.677 34.2433 118.179 34.115 118.737 34.115C119.294 34.115 119.789 34.2433 120.222 34.5C120.662 34.7493 121.003 35.1013 121.245 35.556C121.494 36.0107 121.619 36.5313 121.619 37.118ZM118.737 35.006C118.231 35.006 117.805 35.16 117.461 35.468C117.123 35.776 116.925 36.1793 116.867 36.678H120.607C120.548 36.1867 120.346 35.787 120.002 35.479C119.664 35.1637 119.243 35.006 118.737 35.006Z" fill="black" fill-opacity="0.7"/>
<rect x="32" y="46" width="54" height="30" rx="3" fill="#E85353"/>
<path d="M56.176 66L54.317 63.335C54.239 63.3437 54.122 63.348 53.966 63.348H51.912V66H50.222V56.9H53.966C54.7547 56.9 55.4393 57.03 56.02 57.29C56.6093 57.55 57.06 57.9227 57.372 58.408C57.684 58.8933 57.84 59.4697 57.84 60.137C57.84 60.8217 57.671 61.411 57.333 61.905C57.0037 62.399 56.527 62.7673 55.903 63.01L57.996 66H56.176ZM56.137 60.137C56.137 59.5563 55.9463 59.11 55.565 58.798C55.1837 58.486 54.6247 58.33 53.888 58.33H51.912V61.957H53.888C54.6247 61.957 55.1837 61.801 55.565 61.489C55.9463 61.1683 56.137 60.7177 56.137 60.137ZM63.6438 66.13C62.3871 66.13 61.4078 65.779 60.7058 65.077C60.0038 64.3663 59.6528 63.3523 59.6528 62.035V56.9H61.3428V61.97C61.3428 63.7553 62.1141 64.648 63.6568 64.648C65.1908 64.648 65.9578 63.7553 65.9578 61.97V56.9H67.6218V62.035C67.6218 63.3523 67.2708 64.3663 66.5688 65.077C65.8755 65.779 64.9005 66.13 63.6438 66.13Z" fill="white"/>
<rect x="90" y="46" width="54" height="30" rx="3" fill="#B1B1B1"/>
<path d="M115.047 64.583V66H108.222V56.9H114.865V58.317H109.912V60.683H114.306V62.074H109.912V64.583H115.047ZM125.017 56.9V66H123.626L118.608 59.838V66H116.931V56.9H118.322L123.34 63.062V56.9H125.017Z" fill="white"/>
<path d="M38.49 85.257H35.85V92H34.772V85.257H32.143V84.3H38.49V85.257ZM44.3184 89.118C44.3184 89.1987 44.311 89.305 44.2964 89.437H39.5664C39.6324 89.9503 39.856 90.3647 40.2374 90.68C40.626 90.988 41.1064 91.142 41.6784 91.142C42.375 91.142 42.936 90.9073 43.3614 90.438L43.9444 91.12C43.6804 91.428 43.3504 91.6627 42.9544 91.824C42.5657 91.9853 42.1294 92.066 41.6454 92.066C41.0294 92.066 40.483 91.9413 40.0064 91.692C39.5297 91.4353 39.1594 91.0797 38.8954 90.625C38.6387 90.1703 38.5104 89.657 38.5104 89.085C38.5104 88.5203 38.635 88.0107 38.8844 87.556C39.141 87.1013 39.4894 86.7493 39.9294 86.5C40.3767 86.2433 40.879 86.115 41.4364 86.115C41.9937 86.115 42.4887 86.2433 42.9214 86.5C43.3614 86.7493 43.7024 87.1013 43.9444 87.556C44.1937 88.0107 44.3184 88.5313 44.3184 89.118ZM41.4364 87.006C40.9304 87.006 40.505 87.16 40.1604 87.468C39.823 87.776 39.625 88.1793 39.5664 88.678H43.3064C43.2477 88.1867 43.046 87.787 42.7014 87.479C42.364 87.1637 41.9424 87.006 41.4364 87.006ZM52.6776 86.17V92H51.7206V87.743L49.5426 91.34H49.0806L46.9246 87.732V92H45.9566V86.17H47.0456L49.3336 90.108L51.6876 86.17H52.6776ZM56.812 86.115C57.6186 86.115 58.2346 86.313 58.66 86.709C59.0926 87.105 59.309 87.6953 59.309 88.48V92H58.308V91.23C58.132 91.5013 57.879 91.7103 57.549 91.857C57.2263 91.9963 56.8413 92.066 56.394 92.066C55.7413 92.066 55.217 91.9083 54.821 91.593C54.4323 91.2777 54.238 90.8633 54.238 90.35C54.238 89.8367 54.425 89.426 54.799 89.118C55.173 88.8027 55.767 88.645 56.581 88.645H58.253V88.436C58.253 87.9813 58.121 87.633 57.857 87.391C57.593 87.149 57.2043 87.028 56.691 87.028C56.3463 87.028 56.009 87.0867 55.679 87.204C55.349 87.314 55.0703 87.4643 54.843 87.655L54.403 86.863C54.7036 86.621 55.063 86.4377 55.481 86.313C55.899 86.181 56.3426 86.115 56.812 86.115ZM56.57 91.252C56.9733 91.252 57.3216 91.164 57.615 90.988C57.9083 90.8047 58.121 90.548 58.253 90.218V89.404H56.625C55.7303 89.404 55.283 89.7047 55.283 90.306C55.283 90.5993 55.3966 90.8303 55.624 90.999C55.8513 91.1677 56.1666 91.252 56.57 91.252Z" fill="black" fill-opacity="0.7"/>
<path d="M48 106.277C48.0976 106.396 48.1574 106.541 48.1717 106.694C48.1859 106.847 48.154 107.001 48.08 107.135C47.5019 108.197 47.1999 109.387 47.202 110.595C47.202 114.616 50.48 117.872 54.52 117.872C55.047 117.872 55.56 117.817 56.053 117.712C56.2041 117.68 56.3615 117.692 56.5056 117.748C56.6497 117.805 56.774 117.902 56.863 118.028C56.957 118.16 57.0049 118.319 56.9993 118.48C56.9937 118.642 56.9349 118.797 56.832 118.921C56.0477 119.885 55.0582 120.661 53.9358 121.194C52.8134 121.726 51.5863 122.001 50.344 121.999C45.734 121.999 42 118.285 42 113.709C42 110.265 44.114 107.311 47.124 106.059C47.2739 105.996 47.4404 105.983 47.5983 106.022C47.7563 106.062 47.8973 106.151 48 106.277Z" fill="#5F5F5F"/>
<path d="M123 109.909C121.915 109.909 120.875 110.34 120.107 111.107C119.34 111.875 118.909 112.915 118.909 114C118.909 115.085 119.34 116.126 120.107 116.893C120.875 117.66 121.915 118.091 123 118.091C124.085 118.091 125.126 117.66 125.893 116.893C126.66 116.126 127.091 115.085 127.091 114C127.091 112.915 126.66 111.875 125.893 111.107C125.126 110.34 124.085 109.909 123 109.909Z" fill="#E85353"/>
<path fill-rule="evenodd" clip-rule="evenodd" d="M123 105C123.217 105 123.425 105.086 123.579 105.24C123.732 105.393 123.818 105.601 123.818 105.818V106.636C123.818 106.853 123.732 107.061 123.579 107.215C123.425 107.368 123.217 107.455 123 107.455C122.783 107.455 122.575 107.368 122.421 107.215C122.268 107.061 122.182 106.853 122.182 106.636V105.818C122.182 105.601 122.268 105.393 122.421 105.24C122.575 105.086 122.783 105 123 105ZM115.876 106.876C116.03 106.723 116.238 106.637 116.455 106.637C116.671 106.637 116.88 106.723 117.033 106.876L118.26 108.103C118.409 108.258 118.492 108.464 118.49 108.679C118.488 108.893 118.402 109.099 118.25 109.25C118.099 109.402 117.893 109.488 117.679 109.49C117.464 109.492 117.258 109.409 117.103 109.26L115.876 108.033C115.723 107.88 115.637 107.671 115.637 107.455C115.637 107.238 115.723 107.03 115.876 106.876ZM130.124 106.876C130.277 107.03 130.363 107.238 130.363 107.455C130.363 107.671 130.277 107.88 130.124 108.033L128.897 109.26C128.821 109.338 128.731 109.401 128.631 109.444C128.531 109.487 128.424 109.509 128.315 109.51C128.207 109.511 128.099 109.49 127.998 109.449C127.898 109.408 127.806 109.347 127.73 109.27C127.653 109.194 127.592 109.102 127.551 109.002C127.51 108.901 127.489 108.793 127.49 108.685C127.491 108.576 127.513 108.469 127.556 108.369C127.599 108.269 127.662 108.179 127.74 108.103L128.967 106.876C129.12 106.723 129.329 106.637 129.545 106.637C129.762 106.637 129.97 106.723 130.124 106.876ZM114 114C114 113.783 114.086 113.575 114.24 113.421C114.393 113.268 114.601 113.182 114.818 113.182H115.636C115.853 113.182 116.061 113.268 116.215 113.421C116.368 113.575 116.455 113.783 116.455 114C116.455 114.217 116.368 114.425 116.215 114.579C116.061 114.732 115.853 114.818 115.636 114.818H114.818C114.601 114.818 114.393 114.732 114.24 114.579C114.086 114.425 114 114.217 114 114ZM129.545 114C129.545 113.783 129.632 113.575 129.785 113.421C129.939 113.268 130.147 113.182 130.364 113.182H131.182C131.399 113.182 131.607 113.268 131.76 113.421C131.914 113.575 132 113.783 132 114C132 114.217 131.914 114.425 131.76 114.579C131.607 114.732 131.399 114.818 131.182 114.818H130.364C130.147 114.818 129.939 114.732 129.785 114.579C129.632 114.425 129.545 114.217 129.545 114ZM118.26 118.74C118.414 118.893 118.5 119.101 118.5 119.318C118.5 119.535 118.414 119.743 118.26 119.897L117.033 121.124C116.879 121.273 116.672 121.355 116.457 121.354C116.243 121.352 116.038 121.266 115.886 121.114C115.734 120.962 115.648 120.757 115.646 120.543C115.645 120.328 115.727 120.121 115.876 119.967L117.103 118.74C117.257 118.586 117.465 118.5 117.682 118.5C117.899 118.5 118.107 118.586 118.26 118.74ZM127.74 118.74C127.893 118.586 128.101 118.5 128.318 118.5C128.535 118.5 128.743 118.586 128.897 118.74L130.124 119.967C130.273 120.121 130.355 120.328 130.354 120.543C130.352 120.757 130.266 120.962 130.114 121.114C129.962 121.266 129.757 121.352 129.543 121.354C129.328 121.355 129.121 121.273 128.967 121.124L127.74 119.897C127.586 119.743 127.5 119.535 127.5 119.318C127.5 119.101 127.586 118.893 127.74 118.74ZM123 120.545C123.217 120.545 123.425 120.632 123.579 120.785C123.732 120.939 123.818 121.147 123.818 121.364V122.182C123.818 122.399 123.732 122.607 123.579 122.76C123.425 122.914 123.217 123 123 123C122.783 123 122.575 122.914 122.421 122.76C122.268 122.607 122.182 122.399 122.182 122.182V121.364C122.182 121.147 122.268 120.939 122.421 120.785C122.575 120.632 122.783 120.545 123 120.545Z" fill="#E85353"/>
<path d="M64 113.5C64 107.149 69.1487 102 75.5 102H95.5C101.851 102 107 107.149 107 113.5C107 119.851 101.851 125 95.5 125H75.5C69.1487 125 64 119.851 64 113.5Z" fill="#D9D9D9"/>
<rect x="87" y="105" width="17" height="17" rx="8.5" fill="#E85353"/>
<defs>
<filter id="filter0_d_810_579" x="0" y="0" width="174.5" height="149" filterUnits="userSpaceOnUse" color-interpolation-filters="sRGB">
<feFlood flood-opacity="0" result="BackgroundImageFix"/>
<feColorMatrix in="SourceAlpha" type="matrix" values="0 0 0 0 0 0 0 0 0 0 0 0 0 0 0 0 0 0 127 0" result="hardAlpha"/>
<feOffset/>
<feGaussianBlur stdDeviation="3.5"/>
<feComposite in2="hardAlpha" operator="out"/>
<feColorMatrix type="matrix" values="0 0 0 0 0 0 0 0 0 0 0 0 0 0 0 0 0 0 0.1 0"/>
<feBlend mode="normal" in2="BackgroundImageFix" result="effect1_dropShadow_810_579"/>
<feBlend mode="normal" in="SourceGraphic" in2="effect1_dropShadow_810_579" result="shape"/>
</filter>
</defs>
</svg>
